name X:\Health\ResearchProjects\ASalo\Sprinting 2016\NHaralabidis\Running_implicit_muscleDriven\Running_implicit_muscleDriven\Study2\ExperimentalData\IK_Splined\twoSteps_IK_BSplines_90_meshInts_study2_p02_s_01_lowIK_modROI.mot
datacolumns 38
datarows 11
range 0.43770220 0.44911111
endheader
                time	         pelvis_tilt	         pelvis_list	     pelvis_rotation	           pelvis_tx	           pelvis_ty	           pelvis_tz	       hip_flexion_r	     hip_adduction_r	      hip_rotation_r	        knee_angle_r	       ankle_angle_r	    subtalar_angle_r	         mtp_angle_r	       hip_flexion_l	     hip_adduction_l	      hip_rotation_l	        knee_angle_l	       ankle_angle_l	    subtalar_angle_l	         mtp_angle_l	    lumbar_extension	      lumbar_bending	     lumbar_rotation	          arm_flex_r	           arm_add_r	           arm_rot_r	        elbow_flex_r	           pro_sup_r	        wrist_flex_r	         wrist_dev_r	          arm_flex_l	           arm_add_l	           arm_rot_l	        elbow_flex_l	           pro_sup_l	        wrist_flex_l	         wrist_dev_l	
          0.43770220	        -21.44921147	          1.51307431	        -11.45838486	         -0.85916226	          0.85357511	          0.34120909	         25.20471422	          1.46693731	         10.84543923	        -56.69948406	         18.72728253	        -15.95467068	         12.72168949	         53.86667302	         -3.57939350	        -14.72847782	       -110.75689976	         -5.78935751	        -14.42794201	         10.18879933	        -25.58728322	         -3.63133083	         -6.78608750	         33.36654511	          1.48271834	          9.96850681	         81.80496055	         71.94544890	         -5.52107421	         10.71830578	        -44.29570068	         -9.74053607	        -17.10589992	         37.37082799	         71.47668058	        -10.31828175	         19.53939433	
          0.43942222	        -21.39193109	          1.78827972	        -11.65493130	         -0.85151668	          0.85331139	          0.34160698	         24.49473335	          1.02528567	         10.95696018	        -56.19058805	         18.52938101	        -15.73811852	         13.14629543	         55.07314172	         -3.40814001	        -14.60330173	       -111.17445841	         -5.40798358	        -14.53099848	         10.08903513	        -25.43710827	         -4.13276295	         -6.76771818	         34.81439268	          1.92620167	         10.24329826	         82.47404736	         71.90500693	         -5.57240647	         10.73092956	        -45.71752214	         -9.56119686	        -17.26370142	         37.80286545	         72.21067586	        -10.13568587	         19.76442310	
          0.43942222	        -21.39193109	          1.78827972	        -11.65493130	         -0.85151668	          0.85331139	          0.34160698	         24.49473335	          1.02528567	         10.95696018	        -56.19058805	         18.52938101	        -15.73811852	         13.14629543	         55.07314172	         -3.40814001	        -14.60330173	       -111.17445841	         -5.40798358	        -14.53099848	         10.08903513	        -25.43710827	         -4.13276295	         -6.76771818	         34.81439268	          1.92620167	         10.24329826	         82.47404736	         71.90500693	         -5.57240647	         10.73092956	        -45.71752214	         -9.56119686	        -17.26370142	         37.80286545	         72.21067586	        -10.13568587	         19.76442310	
          0.44017336	        -21.36766357	          1.90924572	        -11.73914402	         -0.84817461	          0.85319389	          0.34177820	         24.18469513	          0.83009765	         11.00425914	        -55.96634572	         18.44298374	        -15.64163724	         13.33258327	         55.60092325	         -3.33199583	        -14.54794216	       -111.35409661	         -5.24318605	        -14.57865265	         10.04262127	        -25.36986138	         -4.35191839	         -6.75839098	         35.44378800	          2.11702864	         10.36212993	         82.76949073	         71.88737194	         -5.59492687	         10.73631387	        -46.33847213	         -9.48315327	        -17.33182688	         37.99554675	         72.53080723	        -10.05554749	         19.86170275	
          0.44254664	        -21.29098809	          2.29144891	        -12.00522184	         -0.83761504	          0.85282264	          0.34231919	         23.20510091	          0.21338316	         11.15370455	        -55.25783148	         18.17000360	        -15.33679578	         13.92117683	         57.26849743	         -3.09141127	        -14.37302849	       -111.92168002	         -4.72249312	        -14.72922039	          9.89597242	        -25.15738867	         -5.04436009	         -6.72892084	         37.43242027	          2.71996399	         10.73758950	         83.70297117	         71.83165258	         -5.66608212	         10.75332608	        -48.30042062	         -9.23656739	        -17.54707552	         38.60434100	         73.54229168	         -9.80234294	         20.16906675	
          0.44426667	        -21.25446392	          2.58989851	        -12.14908969	         -0.82983086	          0.85248302	          0.34263191	         22.48630240	         -0.29584142	         11.22060926	        -54.67623304	         17.95811719	        -15.06234690	         14.37770195	         58.48859768	         -2.87987932	        -14.23317563	       -112.24215413	         -4.39013462	        -14.89056812	          9.76715747	        -24.95973790	         -5.55124027	         -6.67532378	         38.80422000	          3.03334012	         11.03180906	         84.46816953	         71.76661609	         -5.72788918	         10.76070164	        -49.72324641	         -9.05863479	        -17.75812237	         39.14993721	         74.19377060	         -9.60334941	         20.36087295	
          0.44426667	        -21.25446392	          2.58989851	        -12.14908969	         -0.82983086	          0.85248302	          0.34263191	         22.48630240	         -0.29584142	         11.22060926	        -54.67623304	         17.95811719	        -15.06234690	         14.37770195	         58.48859768	         -2.87987932	        -14.23317563	       -112.24215413	         -4.39013462	        -14.89056812	          9.76715747	        -24.95973790	         -5.55124027	         -6.67532378	         38.80422000	          3.03334012	         11.03180906	         84.46816953	         71.76661609	         -5.72788918	         10.76070164	        -49.72324641	         -9.05863479	        -17.75812237	         39.14993721	         74.19377060	         -9.60334941	         20.36087295	
          0.44501780	        -21.23891750	          2.72068631	        -12.21087889	         -0.82642873	          0.85233321	          0.34276680	         22.17221517	         -0.51953991	         11.24894895	        -54.42080499	         17.86528854	        -14.94136054	         14.57770150	         59.02166078	         -2.78671532	        -14.17182444	       -112.38017909	         -4.24594750	        -14.96213575	          9.71042630	        -24.87249819	         -5.77270195	         -6.65123456	         39.40181377	          3.16757186	         11.16076353	         84.80421151	         71.73769203	         -5.75509736	         10.76381755	        -50.34461477	         -8.98094801	        -17.85145345	         39.39041183	         74.47654250	         -9.51612058	         20.44397873	
          0.44739109	        -21.18979714	          3.13392237	        -12.40610752	         -0.81567936	          0.85185987	          0.34319298	         21.17982773	         -1.22633582	         11.33849082	        -53.61375664	         17.57198789	        -14.55909301	         15.20961846	         60.70592258	         -2.49235509	        -13.97797971	       -112.81628162	         -3.79037508	        -15.18826025	          9.53117897	        -24.59685632	         -6.47243046	         -6.57512246	         41.28996613	          3.59168938	         11.56820703	         85.86596700	         71.64630381	         -5.84106412	         10.77366253	        -52.30788515	         -8.73548952	        -18.14634158	         40.15021346	         75.36998626	         -9.24051309	         20.70655909	
          0.44911111	        -21.16737981	          3.45429863	        -12.50245281	         -0.80773309	          0.85145717	          0.34342443	         20.44248190	         -1.79338816	         11.36347985	        -52.95735763	         17.32610658	        -14.23528815	         15.70537147	         61.91902073	         -2.24992153	        -13.83750049	       -113.03729171	         -3.49256372	        -15.37764001	          9.41691035	        -24.36431531	         -6.98652353	         -6.49708264	         42.60852630	          3.75363382	         11.92797313	         86.71355717	         71.51036214	         -5.92477638	         10.77378241	        -53.72494068	         -8.55049631	        -18.46917579	         40.78240561	         75.87592184	         -9.02081765	         20.86993325	
          0.44911111	        -21.16737981	          3.45429863	        -12.50245281	         -0.80773309	          0.85145717	          0.34342443	         20.44248190	         -1.79338816	         11.36347985	        -52.95735763	         17.32610658	        -14.23528815	         15.70537147	         61.91902073	         -2.24992153	        -13.83750049	       -113.03729171	         -3.49256372	        -15.37764001	          9.41691035	        -24.36431531	         -6.98652353	         -6.49708264	         42.60852630	          3.75363382	         11.92797313	         86.71355717	         71.51036214	         -5.92477638	         10.77378241	        -53.72494068	         -8.55049631	        -18.46917579	         40.78240561	         75.87592184	         -9.02081765	         20.86993325	
